<svg xmlns="http://www.w3.org/2000/svg" viewBox="0 0 40.8 37.54"><defs><style>.cls-1{fill:none;stroke:#7cc086;stroke-miterlimit:10;stroke-width:3px;}.cls-2{fill:#7cc086;}</style></defs><g id="Ebene_2" data-name="Ebene 2"><circle class="cls-1" cx="19.29" cy="18.63" r="15.21"/><path class="cls-1" d="M19.28,3.42A15.21,15.21,0,1,0,34.49,18.63a15.48,15.48,0,0,0-.32-3.14"/><path class="cls-2" d="M19.79,21.55h-3.9l-.75,1.8h-2L16.9,15h1.92l3.75,8.4h-2Zm-.61-1.47-1.34-3.22-1.33,3.22Z"/><path class="cls-2" d="M23.41,15.7a1,1,0,0,1,0-1.49,1.2,1.2,0,0,1,.84-.3,1.16,1.16,0,0,1,.84.29.91.91,0,0,1,.33.72,1,1,0,0,1-.33.77,1.13,1.13,0,0,1-.84.31A1.2,1.2,0,0,1,23.41,15.7Zm-.09,1.2h1.87v6.45H23.32Z"/></g></svg>