<svg xmlns="http://www.w3.org/2000/svg" viewBox="0 0 40.8 37.54"><defs><style>.cls-1{fill:none;stroke:#7cc086;stroke-miterlimit:10;stroke-width:3px;}.cls-2{fill:#7cc086;}</style></defs><g id="Ebene_2" data-name="Ebene 2"><circle class="cls-1" cx="20.31" cy="18.77" r="15.21"/><path class="cls-1" d="M20.31,3.57a15.18,15.18,0,0,0-13.69,8.8"/><path class="cls-2" d="M13.36,21.61a3.19,3.19,0,0,1-1.23-1.16,3.43,3.43,0,0,1,0-3.36,3.19,3.19,0,0,1,1.23-1.16,3.62,3.62,0,0,1,1.75-.42,3.72,3.72,0,0,1,1.48.29,3,3,0,0,1,1.11.83l-.94.86a2,2,0,0,0-1.58-.74,2.15,2.15,0,0,0-1,.26,1.82,1.82,0,0,0-.71.72,2.21,2.21,0,0,0,0,2.08,1.82,1.82,0,0,0,.71.72,2.15,2.15,0,0,0,1,.26A2,2,0,0,0,16.76,20l.94.86a2.84,2.84,0,0,1-1.12.84A3.72,3.72,0,0,1,15.1,22,3.61,3.61,0,0,1,13.36,21.61Z"/><path class="cls-2" d="M19.25,21.83a3.44,3.44,0,0,1-1.12-.53l.5-1.1a3.32,3.32,0,0,0,1,.48,3.59,3.59,0,0,0,1.12.18,1.69,1.69,0,0,0,.91-.19.55.55,0,0,0,.3-.49.46.46,0,0,0-.18-.37,1.2,1.2,0,0,0-.45-.24c-.18-.06-.43-.12-.74-.2A8.79,8.79,0,0,1,19.37,19a1.86,1.86,0,0,1-.78-.55,1.48,1.48,0,0,1-.33-1,1.82,1.82,0,0,1,.29-1,2,2,0,0,1,.9-.71,3.74,3.74,0,0,1,1.46-.26,4.66,4.66,0,0,1,1.18.15,3.4,3.4,0,0,1,1,.41l-.45,1.11a3.53,3.53,0,0,0-1.75-.5,1.64,1.64,0,0,0-.9.2.59.59,0,0,0-.29.52.5.5,0,0,0,.33.48,5,5,0,0,0,1,.31,9.77,9.77,0,0,1,1.18.35,1.87,1.87,0,0,1,.79.54,1.44,1.44,0,0,1,.33,1,1.72,1.72,0,0,1-.3,1,2.08,2.08,0,0,1-.91.71A3.74,3.74,0,0,1,20.7,22,5.4,5.4,0,0,1,19.25,21.83Z"/><path class="cls-2" d="M25,21.83a3.54,3.54,0,0,1-1.12-.53l.5-1.1a3.32,3.32,0,0,0,1,.48,3.64,3.64,0,0,0,1.12.18,1.73,1.73,0,0,0,.92-.19.56.56,0,0,0,.29-.49.48.48,0,0,0-.17-.37,1.37,1.37,0,0,0-.45-.24l-.75-.2A8.19,8.19,0,0,1,25.12,19a1.89,1.89,0,0,1-.79-.55,1.48,1.48,0,0,1-.33-1,1.75,1.75,0,0,1,.3-1,2,2,0,0,1,.89-.71,3.74,3.74,0,0,1,1.46-.26,4.6,4.6,0,0,1,1.18.15,3.29,3.29,0,0,1,1,.41l-.45,1.11a3.5,3.5,0,0,0-1.74-.5,1.68,1.68,0,0,0-.91.2.61.61,0,0,0-.29.52.5.5,0,0,0,.34.48,4.61,4.61,0,0,0,1,.31,10.35,10.35,0,0,1,1.18.35,1.9,1.9,0,0,1,.78.54,1.44,1.44,0,0,1,.33,1,1.72,1.72,0,0,1-.3,1,2,2,0,0,1-.9.71,3.83,3.83,0,0,1-1.47.26A5.4,5.4,0,0,1,25,21.83Z"/></g></svg>