<svg xmlns="http://www.w3.org/2000/svg" viewBox="0 0 260.16 255.53"><defs><style>.cls-1{fill:#c5dda7;}.cls-2{fill:#aad29b;}.cls-3{fill:#c6da80;}.cls-4{fill:#7cc086;}.cls-5,.cls-6{fill:#fff;}.cls-6{font-size:14px;font-family:Montserrat-Bold, Montserrat;font-weight:700;}.cls-7{letter-spacing:0em;}.cls-8{letter-spacing:0em;}.cls-9{letter-spacing:0em;}.cls-10{letter-spacing:-0.01em;}.cls-11{letter-spacing:-0.01em;}.cls-12{letter-spacing:-0.01em;}.cls-13{letter-spacing:-0.01em;}.cls-14{letter-spacing:-0.01em;}.cls-15{letter-spacing:-0.01em;}.cls-16{letter-spacing:-0.01em;}.cls-17{letter-spacing:0.01em;}.cls-18{letter-spacing:-0.01em;}.cls-19{letter-spacing:0.04em;}.cls-20{letter-spacing:0em;}.cls-21{letter-spacing:-0.04em;}.cls-22{letter-spacing:-0.01em;}.cls-23{letter-spacing:-0.01em;}.cls-24{letter-spacing:-0.01em;}.cls-25{letter-spacing:0.01em;}.cls-26{letter-spacing:-0.01em;}.cls-27{letter-spacing:-0.01em;}.cls-28{letter-spacing:-0.01em;}.cls-29{letter-spacing:-0.01em;}.cls-30{letter-spacing:-0.01em;}.cls-31{letter-spacing:-0.01em;}.cls-32{letter-spacing:0em;}.cls-33{letter-spacing:-0.01em;}.cls-34{letter-spacing:0em;}.cls-35{letter-spacing:-0.01em;}.cls-36{letter-spacing:-0.01em;}.cls-37{letter-spacing:0em;}.cls-38{letter-spacing:0.01em;}.cls-39{letter-spacing:-0.01em;}.cls-40{letter-spacing:-0.01em;}.cls-41{letter-spacing:-0.01em;}.cls-42{letter-spacing:0em;}.cls-43{letter-spacing:-0.01em;}.cls-44{letter-spacing:-0.01em;}.cls-45{letter-spacing:-0.01em;}.cls-46{letter-spacing:-0.01em;}.cls-47{letter-spacing:0.01em;}</style></defs><g id="Ebene_2" data-name="Ebene 2"><circle class="cls-1" cx="67.55" cy="92.51" r="41.84"/><circle class="cls-2" cx="137.02" cy="57.62" r="45.36"/><circle class="cls-2" cx="90.52" cy="209.43" r="38.32"/><circle class="cls-1" cx="52.94" cy="168.51" r="32.94"/><circle class="cls-1" cx="207.2" cy="192.44" r="32.94"/><circle class="cls-3" cx="75.31" cy="39.79" r="32.94"/><circle class="cls-2" cx="208.79" cy="132.03" r="38.32"/><circle class="cls-3" cx="36.06" cy="212.92" r="24.07"/><circle class="cls-4" cx="134.33" cy="149.04" r="56.9"/><path class="cls-5" d="M119.94,46.27a3.36,3.36,0,0,1,1.48,1.24,3.68,3.68,0,0,1,0,3.77,3.27,3.27,0,0,1-1.48,1.23,5.43,5.43,0,0,1-2.26.43h-2v2.7h-2.27v-9.8h4.24A5.59,5.59,0,0,1,119.94,46.27Zm-.83,4.38a1.54,1.54,0,0,0,.53-1.25,1.57,1.57,0,0,0-.53-1.27,2.41,2.41,0,0,0-1.55-.44h-1.85v3.4h1.85A2.41,2.41,0,0,0,119.11,50.65Z"/><path class="cls-5" d="M130.1,48.84a3.31,3.31,0,0,1,.87,2.49v4.31h-2.19v-4a2,2,0,0,0-.39-1.33,1.41,1.41,0,0,0-1.13-.44,1.76,1.76,0,0,0-1.32.51,2.09,2.09,0,0,0-.49,1.52v3.72h-2.18V45.25h2.18v3.64a2.84,2.84,0,0,1,1-.66,3.66,3.66,0,0,1,1.34-.23A3.08,3.08,0,0,1,130.1,48.84Z"/><path class="cls-5" d="M134.28,55.26a3.69,3.69,0,0,1-1.47-1.38,4.06,4.06,0,0,1,0-4,3.69,3.69,0,0,1,1.47-1.38,4.9,4.9,0,0,1,4.27,0,3.83,3.83,0,0,1,0,6.77,4.9,4.9,0,0,1-4.27,0Zm3.52-1.87a2.4,2.4,0,0,0,0-3,1.82,1.82,0,0,0-1.38-.57,1.85,1.85,0,0,0-1.39.57,2.4,2.4,0,0,0,0,3,1.85,1.85,0,0,0,1.39.57A1.82,1.82,0,0,0,137.8,53.39Z"/><path class="cls-5" d="M146.84,55.28a2.29,2.29,0,0,1-.79.35,4,4,0,0,1-1,.12,3,3,0,0,1-2.08-.68,2.63,2.63,0,0,1-.73-2V50h-1.16V48.28h1.16V46.44h2.18v1.84h1.88V50h-1.88V53a1,1,0,0,0,.25.74.9.9,0,0,0,.69.26,1.44,1.44,0,0,0,.88-.28Z"/><path class="cls-5" d="M149.35,55.26a3.79,3.79,0,0,1-1.48-1.38,4.06,4.06,0,0,1,0-4,3.79,3.79,0,0,1,1.48-1.38,4.52,4.52,0,0,1,2.13-.49,4.46,4.46,0,0,1,2.13.49,3.69,3.69,0,0,1,1.47,1.38,4.06,4.06,0,0,1,0,4,3.69,3.69,0,0,1-1.47,1.38,4.46,4.46,0,0,1-2.13.49A4.52,4.52,0,0,1,149.35,55.26Zm3.51-1.87a2.4,2.4,0,0,0,0-3,2,2,0,0,0-2.76,0,2.36,2.36,0,0,0,0,3,2,2,0,0,0,2.76,0Z"/><path class="cls-5" d="M157.08,50.82h4v1.75h-4Z"/><path class="cls-5" d="M120.12,58.11v6.27A4,4,0,0,1,119,67.46a4.43,4.43,0,0,1-3.15,1,7.78,7.78,0,0,1-2.07-.27,4.36,4.36,0,0,1-1.62-.77l.87-1.56a3.56,3.56,0,0,0,1.2.62,4.89,4.89,0,0,0,1.46.23,2.37,2.37,0,0,0,1.67-.51,2,2,0,0,0,.54-1.55v-.32a3.07,3.07,0,0,1-2.38.94,3.93,3.93,0,0,1-1.9-.46,3.42,3.42,0,0,1-1.36-1.28,3.81,3.81,0,0,1,0-3.81,3.49,3.49,0,0,1,1.36-1.28,4,4,0,0,1,1.9-.45,3,3,0,0,1,2.49,1.07v-1ZM117.41,63a1.72,1.72,0,0,0,.56-1.33,1.74,1.74,0,0,0-.56-1.34,2,2,0,0,0-1.42-.51,2.05,2.05,0,0,0-1.43.51,1.74,1.74,0,0,0-.56,1.34,1.72,1.72,0,0,0,.56,1.33,2.06,2.06,0,0,0,1.43.52A2,2,0,0,0,117.41,63Z"/><path class="cls-5" d="M125.16,58.28a3.87,3.87,0,0,1,1.53-.28v2l-.48,0a2,2,0,0,0-1.48.52,2.14,2.14,0,0,0-.53,1.57v3.56H122V58.11h2.08v1A2.48,2.48,0,0,1,125.16,58.28Z"/><path class="cls-5" d="M133.65,58.83a3.2,3.2,0,0,1,.93,2.51v4.3h-2V64.7a2.44,2.44,0,0,1-2.3,1,3.49,3.49,0,0,1-1.5-.29,2.24,2.24,0,0,1-1-.81,2.09,2.09,0,0,1-.34-1.18,2,2,0,0,1,.79-1.65,4,4,0,0,1,2.44-.6h1.74a1.41,1.41,0,0,0-.43-1.1,1.92,1.92,0,0,0-1.31-.39,4,4,0,0,0-1.18.19,3.3,3.3,0,0,0-1,.51l-.78-1.52a4.48,4.48,0,0,1,1.48-.67A6.52,6.52,0,0,1,131,58,3.9,3.9,0,0,1,133.65,58.83ZM131.78,64a1.39,1.39,0,0,0,.62-.76v-.77h-1.5c-.89,0-1.34.29-1.34.88a.8.8,0,0,0,.33.67,1.5,1.5,0,0,0,.9.24A1.81,1.81,0,0,0,131.78,64Z"/><path class="cls-5" d="M142.79,58.48a3.46,3.46,0,0,1,1.35,1.36,4.47,4.47,0,0,1,0,4.07,3.46,3.46,0,0,1-1.35,1.36,3.87,3.87,0,0,1-1.91.48,2.9,2.9,0,0,1-2.27-.91v3.52h-2.19V58.11h2.09V59a2.88,2.88,0,0,1,2.37-1A3.87,3.87,0,0,1,142.79,58.48Zm-.91,4.91a2.4,2.4,0,0,0,0-3,2,2,0,0,0-2.76,0,2.4,2.4,0,0,0,0,3,2,2,0,0,0,2.76,0Z"/><path class="cls-5" d="M152.88,58.84a3.34,3.34,0,0,1,.86,2.49v4.31h-2.19v-4a2,2,0,0,0-.39-1.33,1.41,1.41,0,0,0-1.13-.44,1.76,1.76,0,0,0-1.32.51,2.09,2.09,0,0,0-.49,1.52v3.72H146V55.25h2.18v3.64a2.84,2.84,0,0,1,1.05-.66,3.68,3.68,0,0,1,1.35-.23A3.11,3.11,0,0,1,152.88,58.84Z"/><path class="cls-5" d="M162.8,58.11l-3.4,8a3.92,3.92,0,0,1-1.28,1.84,3.17,3.17,0,0,1-1.84.53,3.85,3.85,0,0,1-1.16-.18,2.49,2.49,0,0,1-.94-.51l.8-1.55a2,2,0,0,0,.58.35,1.91,1.91,0,0,0,.65.12,1.19,1.19,0,0,0,.73-.21,1.89,1.89,0,0,0,.5-.72l0-.07-3.26-7.59h2.25l2.12,5.11,2.12-5.11Z"/><text class="cls-6" transform="translate(108.69 145.76)"><tspan class="cls-7">D</tspan><tspan class="cls-8" x="11.6" y="0">e</tspan><tspan class="cls-9" x="20.44" y="0">s</tspan><tspan class="cls-10" x="27.84" y="0">i</tspan><tspan class="cls-11" x="31.93" y="0">g</tspan><tspan x="41.6" y="0">n</tspan><tspan class="cls-12" x="-8.88" y="12">C</tspan><tspan class="cls-13" x="1.22" y="12">o</tspan><tspan class="cls-14" x="10.31" y="12">n</tspan><tspan class="cls-15" x="19.88" y="12">c</tspan><tspan class="cls-16" x="28.06" y="12">e</tspan><tspan x="36.79" y="12">p</tspan><tspan class="cls-17" x="46.45" y="12">t</tspan><tspan x="52.72" y="12">s</tspan></text><text class="cls-6" transform="translate(190.58 137.57)"><tspan class="cls-18">U</tspan><tspan class="cls-19" x="10.91" y="0">X</tspan><tspan class="cls-20" x="21.4" y="0">/U</tspan><tspan x="37.88" y="0">I</tspan></text><text class="cls-6" transform="translate(190.17 189.89)"><tspan class="cls-21">W</tspan><tspan class="cls-22" x="15.66" y="0">e</tspan><tspan x="24.4" y="0">b</tspan><tspan class="cls-7" x="-8.61" y="12">D</tspan><tspan class="cls-8" x="2.99" y="12">e</tspan><tspan class="cls-9" x="11.83" y="12">s</tspan><tspan class="cls-10" x="19.23" y="12">i</tspan><tspan class="cls-11" x="23.33" y="12">g</tspan><tspan x="32.99" y="12">n</tspan></text><text class="cls-6" transform="translate(57.71 37.34)"><tspan class="cls-23">I</tspan><tspan class="cls-24" x="4.5" y="0">ll</tspan><tspan x="12.66" y="0">u</tspan><tspan class="cls-25" x="22.28" y="0">s</tspan><tspan x="29.79" y="0">-</tspan><tspan class="cls-26" x="-7" y="12">t</tspan><tspan class="cls-27" x="-1.01" y="12">r</tspan><tspan class="cls-28" x="4.89" y="12">a</tspan><tspan class="cls-29" x="13.36" y="12">t</tspan><tspan class="cls-10" x="19.34" y="12">i</tspan><tspan class="cls-13" x="23.43" y="12">o</tspan><tspan x="32.52" y="12">n</tspan></text><text class="cls-6" transform="translate(39.37 92.69)"><tspan class="cls-30">G</tspan><tspan class="cls-31" x="10.71" y="0">ra</tspan><tspan class="cls-32" x="25.12" y="0">p</tspan><tspan class="cls-33" x="34.73" y="0">h</tspan><tspan class="cls-10" x="44.23" y="0">i</tspan><tspan x="48.32" y="0">c</tspan><tspan class="cls-7" x="2.66" y="12">D</tspan><tspan class="cls-8" x="14.26" y="12">e</tspan><tspan class="cls-9" x="23.1" y="12">s</tspan><tspan class="cls-10" x="30.5" y="12">i</tspan><tspan class="cls-11" x="34.59" y="12">g</tspan><tspan x="44.26" y="12">n</tspan></text><text class="cls-6" transform="translate(25.78 169.88)"><tspan class="cls-34">A</tspan><tspan class="cls-33" x="10.77" y="0">n</tspan><tspan class="cls-35" x="20.27" y="0">i</tspan><tspan class="cls-36" x="24.37" y="0">m</tspan><tspan class="cls-37" x="38.92" y="0">a</tspan><tspan x="47.62" y="0">-</tspan><tspan class="cls-29" x="12.1" y="12">t</tspan><tspan class="cls-10" x="18.07" y="12">i</tspan><tspan class="cls-13" x="22.17" y="12">o</tspan><tspan x="31.25" y="12">n</tspan></text><text class="cls-6" transform="translate(69.34 213.06)"><tspan class="cls-38">V</tspan><tspan class="cls-26" x="10.63" y="0">i</tspan><tspan class="cls-39" x="14.74" y="0">d</tspan><tspan x="24.35" y="0">eo</tspan><tspan class="cls-40" x="-5.01" y="12">E</tspan><tspan class="cls-41" x="4.23" y="12">d</tspan><tspan class="cls-42" x="13.8" y="12">i</tspan><tspan class="cls-29" x="17.95" y="12">t</tspan><tspan class="cls-41" x="23.93" y="12">i</tspan><tspan class="cls-43" x="28.02" y="12">n</tspan><tspan x="37.56" y="12">g</tspan></text><text class="cls-6" transform="translate(17.46 213.06)"><tspan class="cls-44">F</tspan><tspan class="cls-45" x="8.88" y="0">i</tspan><tspan class="cls-46" x="12.96" y="0">l</tspan><tspan class="cls-47" x="17.04" y="0">m</tspan><tspan x="31.8" y="0">-</tspan><tspan class="cls-41" x="6.89" y="12">i</tspan><tspan class="cls-36" x="10.98" y="12">n</tspan><tspan x="20.52" y="12">g</tspan></text></g></svg>