<svg xmlns="http://www.w3.org/2000/svg" viewBox="0 0 260.16 255.53"><defs><style>.cls-1{fill:#c5dda7;}.cls-2{fill:#fff;}.cls-3{fill:#aad29b;}.cls-4{fill:#c6da80;}.cls-5{fill:#fdfdfd;}.cls-6{fill:#7cc086;}</style></defs><g id="Ebene_2" data-name="Ebene 2"><circle class="cls-1" cx="67.55" cy="92.51" r="41.84"/><path class="cls-2" d="M42.26,91.9h1.33v2.55a3.81,3.81,0,0,1-1.19.6,4.54,4.54,0,0,1-1.36.21,3.66,3.66,0,0,1-1.76-.42A3.11,3.11,0,0,1,37.61,92a3.15,3.15,0,0,1,.44-1.68,3.08,3.08,0,0,1,1.24-1.16,3.74,3.74,0,0,1,1.78-.42,3.82,3.82,0,0,1,1.5.28,2.9,2.9,0,0,1,1.14.81l-.94.86A2.17,2.17,0,0,0,41.14,90a2.31,2.31,0,0,0-1.07.25,1.91,1.91,0,0,0-.73.71A2.16,2.16,0,0,0,39.08,92a2.08,2.08,0,0,0,.26,1,1.87,1.87,0,0,0,.73.72,2.16,2.16,0,0,0,1.06.25,2.39,2.39,0,0,0,1.13-.27Z"/><path class="cls-2" d="M46.86,90.41a2.57,2.57,0,0,1,1-.18v1.3l-.32,0a1.26,1.26,0,0,0-.94.34,1.34,1.34,0,0,0-.34,1v2.29H44.84V90.31h1.34v.63A1.63,1.63,0,0,1,46.86,90.41Z"/><path class="cls-2" d="M52.34,90.77a2,2,0,0,1,.6,1.61v2.77H51.63v-.61a1.58,1.58,0,0,1-1.48.68,2.27,2.27,0,0,1-1-.19,1.46,1.46,0,0,1-.62-.52,1.41,1.41,0,0,1-.22-.76,1.26,1.26,0,0,1,.51-1.06,2.57,2.57,0,0,1,1.57-.39h1.12a.9.9,0,0,0-.28-.7,1.22,1.22,0,0,0-.84-.25,2.46,2.46,0,0,0-.76.12,1.88,1.88,0,0,0-.63.33l-.51-1a3,3,0,0,1,.95-.43,4,4,0,0,1,1.14-.16A2.51,2.51,0,0,1,52.34,90.77Zm-1.2,3.34a.93.93,0,0,0,.4-.49v-.5h-1q-.87,0-.87.57a.52.52,0,0,0,.21.43,1,1,0,0,0,.58.15A1.22,1.22,0,0,0,51.14,94.11Z"/><path class="cls-2" d="M55.75,90.41H57v1.08h-1.2v3.66H54.38V91.49h-.75V90.41h.75V90.2a1.78,1.78,0,0,1,.49-1.32,1.9,1.9,0,0,1,1.38-.48,2.91,2.91,0,0,1,.6.06,1.36,1.36,0,0,1,.47.2l-.36,1a1,1,0,0,0-.57-.18c-.43,0-.64.24-.64.71Zm2.74-1a.75.75,0,0,1,0-1.12.89.89,0,0,1,.63-.23,1,1,0,0,1,.63.22.68.68,0,0,1,.24.54.77.77,0,0,1-.24.58.92.92,0,0,1-.63.23A.88.88,0,0,1,58.49,89.41Zm-.08.9h1.41v4.84H58.41Z"/><path class="cls-2" d="M63.2,93.25l-.67.66v1.24H61.12V88.47h1.41v3.78l2-1.94h1.67l-2,2,2.19,2.79h-1.7Z"/><path class="cls-2" d="M71.79,88.47v6.68H70.45v-.56a1.87,1.87,0,0,1-1.52.63,2.44,2.44,0,0,1-1.23-.31,2.14,2.14,0,0,1-.87-.87,2.86,2.86,0,0,1,0-2.63,2.14,2.14,0,0,1,.87-.87,2.55,2.55,0,0,1,1.23-.31,1.83,1.83,0,0,1,1.45.59V88.47ZM70.06,93.7a1.53,1.53,0,0,0,0-2,1.27,1.27,0,0,0-1.77,0,1.5,1.5,0,0,0,0,2,1.24,1.24,0,0,0,1.77,0Z"/><path class="cls-2" d="M77.8,93.12H74.14a1.12,1.12,0,0,0,.46.71,1.54,1.54,0,0,0,.92.26,1.75,1.75,0,0,0,.67-.11,1.56,1.56,0,0,0,.55-.35l.74.81a2.5,2.5,0,0,1-2,.78A3.19,3.19,0,0,1,74,94.9a2.35,2.35,0,0,1-1-.89,2.6,2.6,0,0,1,0-2.57,2.41,2.41,0,0,1,.93-.89,2.84,2.84,0,0,1,2.6,0,2.2,2.2,0,0,1,.91.88,2.59,2.59,0,0,1,.33,1.32S77.82,92.89,77.8,93.12Zm-3.29-1.55a1.16,1.16,0,0,0-.39.73H76.5a1.19,1.19,0,0,0-.39-.73,1.21,1.21,0,0,0-.8-.27A1.23,1.23,0,0,0,74.51,91.57Z"/><path class="cls-2" d="M79.21,95.07a3.2,3.2,0,0,1-.92-.37l.47-1a3.11,3.11,0,0,0,.78.34,3.62,3.62,0,0,0,.9.13c.6,0,.89-.15.89-.44a.31.31,0,0,0-.24-.3,3.48,3.48,0,0,0-.74-.15,7,7,0,0,1-1-.21,1.67,1.67,0,0,1-.67-.41,1.18,1.18,0,0,1-.28-.85,1.32,1.32,0,0,1,.27-.82,1.68,1.68,0,0,1,.77-.55,3.35,3.35,0,0,1,1.2-.2,4.44,4.44,0,0,1,1,.12,2.5,2.5,0,0,1,.84.31l-.46,1a2.81,2.81,0,0,0-1.4-.36,1.46,1.46,0,0,0-.67.12.38.38,0,0,0-.23.33.32.32,0,0,0,.24.31,4.11,4.11,0,0,0,.78.17c.39.07.72.14,1,.21a1.53,1.53,0,0,1,.66.41,1.21,1.21,0,0,1,.28.83,1.27,1.27,0,0,1-.27.8,1.73,1.73,0,0,1-.79.55,3.78,3.78,0,0,1-1.23.19A4.66,4.66,0,0,1,79.21,95.07Z"/><path class="cls-2" d="M83.61,89.41a.77.77,0,0,1,0-1.12.89.89,0,0,1,.63-.23.93.93,0,0,1,.63.22.69.69,0,0,1,.25.54.78.78,0,0,1-.25.58,1,1,0,0,1-1.26,0Zm-.07.9h1.4v4.84h-1.4Z"/><path class="cls-2" d="M91.24,90.31v4a2.59,2.59,0,0,1-.69,2,2.87,2.87,0,0,1-2,.65,4.87,4.87,0,0,1-1.34-.18,2.79,2.79,0,0,1-1-.49l.56-1a2.24,2.24,0,0,0,.77.4,3.08,3.08,0,0,0,.94.15,1.51,1.51,0,0,0,1.07-.33,1.31,1.31,0,0,0,.35-1v-.21a2,2,0,0,1-1.53.6,2.53,2.53,0,0,1-1.22-.29,2.24,2.24,0,0,1-.88-.82,2.37,2.37,0,0,1-.32-1.23,2.34,2.34,0,0,1,.32-1.22,2.24,2.24,0,0,1,.88-.82,2.53,2.53,0,0,1,1.22-.3,1.9,1.9,0,0,1,1.6.7v-.62ZM89.5,93.43a1.1,1.1,0,0,0,.36-.86,1.12,1.12,0,0,0-.36-.86,1.27,1.27,0,0,0-.91-.32,1.31,1.31,0,0,0-.92.32,1.12,1.12,0,0,0-.36.86,1.1,1.1,0,0,0,.36.86,1.31,1.31,0,0,0,.92.33A1.27,1.27,0,0,0,89.5,93.43Z"/><path class="cls-2" d="M97,90.77a2.19,2.19,0,0,1,.55,1.61v2.77H96.1V92.59a1.26,1.26,0,0,0-.26-.86.91.91,0,0,0-.73-.28,1.11,1.11,0,0,0-.84.33,1.35,1.35,0,0,0-.32,1v2.4h-1.4V90.31h1.34v.56a2,2,0,0,1,.69-.47,2.46,2.46,0,0,1,.91-.17A2,2,0,0,1,97,90.77Z"/><circle class="cls-3" cx="137.02" cy="57.62" r="45.36"/><path class="cls-2" d="M114.28,55.13v1.66h2.91V58h-2.91v2.3h-1.46V54h4.76v1.17Z"/><path class="cls-2" d="M119.27,60a2.31,2.31,0,0,1-.94-.89,2.53,2.53,0,0,1,0-2.57,2.31,2.31,0,0,1,.94-.89,3,3,0,0,1,1.38-.32,2.94,2.94,0,0,1,1.37.32,2.37,2.37,0,0,1,.94.89,2.6,2.6,0,0,1,0,2.57A2.37,2.37,0,0,1,122,60a2.94,2.94,0,0,1-1.37.32A3,3,0,0,1,119.27,60Zm2.26-1.2a1.53,1.53,0,0,0,0-2,1.17,1.17,0,0,0-.88-.37,1.19,1.19,0,0,0-.89.37,1.53,1.53,0,0,0,0,2,1.19,1.19,0,0,0,.89.37A1.17,1.17,0,0,0,121.53,58.81Z"/><path class="cls-2" d="M127.36,60a1.5,1.5,0,0,1-.51.23,2.59,2.59,0,0,1-.63.08,1.91,1.91,0,0,1-1.34-.44,1.72,1.72,0,0,1-.47-1.3v-2h-.75V55.52h.75V54.34h1.4v1.18H127V56.6h-1.21v2a.71.71,0,0,0,.16.48.59.59,0,0,0,.45.16A.87.87,0,0,0,127,59Z"/><path class="cls-2" d="M128.93,60a2.46,2.46,0,0,1,0-4.35,3.09,3.09,0,0,1,2.74,0,2.46,2.46,0,0,1,0,4.35,3.09,3.09,0,0,1-2.74,0Zm2.26-1.2a1.53,1.53,0,0,0,0-2,1.19,1.19,0,0,0-.89-.37,1.21,1.21,0,0,0-.89.37,1.53,1.53,0,0,0,0,2,1.21,1.21,0,0,0,.89.37A1.19,1.19,0,0,0,131.19,58.81Z"/><path class="cls-2" d="M138.89,55.41v4a2.62,2.62,0,0,1-.69,2,2.89,2.89,0,0,1-2,.64,4.8,4.8,0,0,1-1.33-.17,2.87,2.87,0,0,1-1-.49l.55-1a2.39,2.39,0,0,0,.78.4,3,3,0,0,0,.93.15,1.52,1.52,0,0,0,1.08-.33,1.31,1.31,0,0,0,.35-1v-.21A2,2,0,0,1,136,60a2.59,2.59,0,0,1-1.22-.29,2.24,2.24,0,0,1-.88-.82,2.31,2.31,0,0,1-.33-1.23,2.25,2.25,0,0,1,.33-1.22,2.2,2.2,0,0,1,.88-.83,2.59,2.59,0,0,1,1.22-.29,1.91,1.91,0,0,1,1.6.7v-.63Zm-1.74,3.13a1.1,1.1,0,0,0,.35-.86,1.11,1.11,0,0,0-.35-.86,1.43,1.43,0,0,0-1.83,0,1.12,1.12,0,0,0-.36.86,1.1,1.1,0,0,0,.36.86,1.43,1.43,0,0,0,1.83,0Z"/><path class="cls-2" d="M142.22,55.52a2.48,2.48,0,0,1,1-.18v1.3l-.31,0a1.27,1.27,0,0,0-.95.34,1.34,1.34,0,0,0-.34,1v2.29h-1.41V55.41h1.35v.64A1.52,1.52,0,0,1,142.22,55.52Z"/><path class="cls-2" d="M147.69,55.88a2,2,0,0,1,.6,1.61v2.77H147v-.61a1.57,1.57,0,0,1-1.48.68,2.35,2.35,0,0,1-1-.19,1.49,1.49,0,0,1-.63-.52,1.43,1.43,0,0,1-.21-.76,1.28,1.28,0,0,1,.5-1.06,2.59,2.59,0,0,1,1.57-.39h1.12a.87.87,0,0,0-.28-.7,1.19,1.19,0,0,0-.84-.25,2.51,2.51,0,0,0-.76.12,2,2,0,0,0-.63.33l-.5-1a2.86,2.86,0,0,1,1-.43,3.86,3.86,0,0,1,1.13-.16A2.51,2.51,0,0,1,147.69,55.88Zm-1.2,3.34a.93.93,0,0,0,.4-.49v-.5h-1q-.87,0-.87.57a.52.52,0,0,0,.21.43,1,1,0,0,0,.59.15A1.18,1.18,0,0,0,146.49,59.22Z"/><path class="cls-2" d="M151.1,55.52h1.24V56.6h-1.2v3.66h-1.41V56.6H149V55.52h.74v-.21a1.81,1.81,0,0,1,.49-1.32,1.91,1.91,0,0,1,1.39-.48,2.74,2.74,0,0,1,.59.06,1.51,1.51,0,0,1,.48.2l-.37,1a1,1,0,0,0-.57-.17c-.42,0-.64.24-.64.7Zm2.74-1a.76.76,0,0,1,0-1.11.89.89,0,0,1,.63-.23.93.93,0,0,1,.63.22.68.68,0,0,1,.24.54.77.77,0,0,1-.24.58,1,1,0,0,1-1.26,0Zm-.07.9h1.4v4.85h-1.4Z"/><path class="cls-2" d="M161.19,58.23h-3.66a1.09,1.09,0,0,0,.47.71,1.48,1.48,0,0,0,.91.26,1.8,1.8,0,0,0,.68-.11,1.5,1.5,0,0,0,.54-.36l.75.82a2.53,2.53,0,0,1-2,.78,3.19,3.19,0,0,1-1.45-.32,2.32,2.32,0,0,1-1-.89,2.4,2.4,0,0,1-.34-1.28,2.53,2.53,0,0,1,.33-1.29,2.41,2.41,0,0,1,.93-.89,2.74,2.74,0,0,1,1.32-.32,2.67,2.67,0,0,1,1.29.31,2.18,2.18,0,0,1,.9.88,2.59,2.59,0,0,1,.33,1.32S161.21,58,161.19,58.23Zm-3.28-1.56a1.15,1.15,0,0,0-.4.74h2.39a1.16,1.16,0,0,0-.4-.73,1.21,1.21,0,0,0-.79-.28A1.19,1.19,0,0,0,157.91,56.67Z"/><circle class="cls-3" cx="90.52" cy="209.43" r="38.32"/><path class="cls-2" d="M74.89,212.83a3.44,3.44,0,0,1-1.12-.53l.5-1.1a3.32,3.32,0,0,0,1,.48,3.59,3.59,0,0,0,1.12.18,1.69,1.69,0,0,0,.91-.19.55.55,0,0,0,.3-.49.46.46,0,0,0-.18-.37,1.2,1.2,0,0,0-.45-.24c-.18-.06-.43-.12-.74-.2A8.79,8.79,0,0,1,75,210a1.77,1.77,0,0,1-.78-.55,1.45,1.45,0,0,1-.33-1,1.83,1.83,0,0,1,.29-1,2,2,0,0,1,.9-.71,3.74,3.74,0,0,1,1.46-.26,4.66,4.66,0,0,1,1.18.15,3.4,3.4,0,0,1,1,.41l-.45,1.11a3.53,3.53,0,0,0-1.75-.5,1.64,1.64,0,0,0-.9.2.59.59,0,0,0-.29.52.5.5,0,0,0,.33.48,5.56,5.56,0,0,0,1,.32,8.38,8.38,0,0,1,1.18.34,1.87,1.87,0,0,1,.79.54,1.44,1.44,0,0,1,.33,1,1.72,1.72,0,0,1-.3,1,2.08,2.08,0,0,1-.91.71,3.74,3.74,0,0,1-1.46.26A5.4,5.4,0,0,1,74.89,212.83Z"/><path class="cls-2" d="M80.86,212.67a2.48,2.48,0,0,1-1-3.46,2.4,2.4,0,0,1,1-.88,2.88,2.88,0,0,1,1.39-.32,2.66,2.66,0,0,1,1.34.32,1.89,1.89,0,0,1,.83.91l-1.09.59a1.19,1.19,0,0,0-1.09-.67,1.23,1.23,0,0,0-.91.36,1.51,1.51,0,0,0,0,2,1.23,1.23,0,0,0,.91.36,1.18,1.18,0,0,0,1.09-.66l1.09.59a2,2,0,0,1-.83.9,2.66,2.66,0,0,1-1.34.32A2.88,2.88,0,0,1,80.86,212.67Z"/><path class="cls-2" d="M89.59,208.55a2.13,2.13,0,0,1,.55,1.6v2.77h-1.4v-2.55a1.28,1.28,0,0,0-.25-.86.93.93,0,0,0-.73-.29,1.11,1.11,0,0,0-.85.33,1.37,1.37,0,0,0-.31,1v2.39H85.19v-6.68H86.6v2.34a1.78,1.78,0,0,1,.67-.42,2.45,2.45,0,0,1,.87-.15A2,2,0,0,1,89.59,208.55Z"/><path class="cls-2" d="M95.81,208.55a2.13,2.13,0,0,1,.55,1.6v2.77H95v-2.55a1.28,1.28,0,0,0-.25-.86.94.94,0,0,0-.73-.29,1.11,1.11,0,0,0-.85.33,1.38,1.38,0,0,0-.32,1v2.39h-1.4v-4.84h1.34v.57a2,2,0,0,1,.69-.48,2.45,2.45,0,0,1,.91-.16A2,2,0,0,1,95.81,208.55Z"/><path class="cls-2" d="M97.7,207.18a.77.77,0,0,1,0-1.12.88.88,0,0,1,.63-.22.92.92,0,0,1,.63.21.71.71,0,0,1,.24.54.75.75,0,0,1-.24.58.85.85,0,0,1-.63.23A.88.88,0,0,1,97.7,207.18Zm-.07.9H99v4.84h-1.4Z"/><path class="cls-2" d="M103.46,212.69a1.5,1.5,0,0,1-.51.23,2.59,2.59,0,0,1-.63.07,1.87,1.87,0,0,1-1.34-.44,1.68,1.68,0,0,1-.47-1.29v-2h-.75v-1.08h.75V207h1.4v1.18h1.21v1.08h-1.21v2a.68.68,0,0,0,.16.47.6.6,0,0,0,.45.17.87.87,0,0,0,.56-.18Z"/><path class="cls-2" d="M107.27,212.69a1.5,1.5,0,0,1-.51.23,2.59,2.59,0,0,1-.63.07,1.87,1.87,0,0,1-1.34-.44,1.68,1.68,0,0,1-.47-1.29v-2h-.75v-1.08h.75V207h1.4v1.18h1.21v1.08h-1.21v2a.64.64,0,0,0,.16.47.57.57,0,0,0,.44.17.88.88,0,0,0,.57-.18Z"/><circle class="cls-1" cx="52.94" cy="168.51" r="32.94"/><path class="cls-2" d="M33.41,170.67H30.49L29.93,172H28.44l2.8-6.3h1.44L35.5,172H34ZM33,169.56l-1-2.41-1,2.41Z"/><path class="cls-2" d="M40.45,167.65a2.13,2.13,0,0,1,.56,1.6V172H39.6v-2.56a1.26,1.26,0,0,0-.25-.86.92.92,0,0,0-.73-.28,1.11,1.11,0,0,0-.84.33,1.36,1.36,0,0,0-.32,1V172h-1.4v-4.84H37.4v.56a1.88,1.88,0,0,1,.69-.47,2.45,2.45,0,0,1,.91-.16A1.93,1.93,0,0,1,40.45,167.65Z"/><path class="cls-2" d="M42.35,166.28a.77.77,0,0,1,0-1.12.88.88,0,0,1,.63-.22.92.92,0,0,1,.63.21.71.71,0,0,1,.24.54.75.75,0,0,1-.24.58.85.85,0,0,1-.63.23A.88.88,0,0,1,42.35,166.28Zm-.07.9h1.4V172h-1.4Z"/><path class="cls-2" d="M52.63,167.64a2.17,2.17,0,0,1,.54,1.61V172H51.76v-2.56a1.32,1.32,0,0,0-.24-.86.83.83,0,0,0-.68-.28,1,1,0,0,0-.78.32,1.38,1.38,0,0,0-.29,1V172h-1.4v-2.56c0-.76-.31-1.14-.92-1.14a1,1,0,0,0-.77.32,1.34,1.34,0,0,0-.29,1V172H45v-4.84h1.34v.55a1.83,1.83,0,0,1,.66-.46,2.2,2.2,0,0,1,.86-.16,2,2,0,0,1,.92.2,1.59,1.59,0,0,1,.67.59,2.07,2.07,0,0,1,.75-.59,2.35,2.35,0,0,1,1-.2A1.94,1.94,0,0,1,52.63,167.64Z"/><path class="cls-2" d="M58.11,167.64a2.07,2.07,0,0,1,.6,1.62V172H57.4v-.6a1.58,1.58,0,0,1-1.48.67,2.27,2.27,0,0,1-1-.19,1.39,1.39,0,0,1-.62-.52,1.31,1.31,0,0,1-.22-.76,1.26,1.26,0,0,1,.51-1.06,2.58,2.58,0,0,1,1.57-.38h1.12a.91.91,0,0,0-.28-.71,1.22,1.22,0,0,0-.84-.25,2.46,2.46,0,0,0-.76.12,1.88,1.88,0,0,0-.63.33l-.51-1a3,3,0,0,1,1-.43,4.35,4.35,0,0,1,1.14-.15A2.51,2.51,0,0,1,58.11,167.64ZM56.91,171a.93.93,0,0,0,.4-.49V170h-1c-.57,0-.86.19-.86.57a.52.52,0,0,0,.21.43,1,1,0,0,0,.58.16A1.22,1.22,0,0,0,56.91,171Z"/><path class="cls-2" d="M63.1,171.78a1.26,1.26,0,0,1-.51.23,2.18,2.18,0,0,1-.63.08,1.91,1.91,0,0,1-1.34-.44,1.71,1.71,0,0,1-.47-1.3v-2H59.4v-1.08h.75v-1.17h1.4v1.17h1.21v1.08H61.55v2a.68.68,0,0,0,.16.47.61.61,0,0,0,.45.17.87.87,0,0,0,.56-.18Z"/><path class="cls-2" d="M64,166.28a.75.75,0,0,1,0-1.12.88.88,0,0,1,.63-.22,1,1,0,0,1,.63.21.71.71,0,0,1,.24.54.75.75,0,0,1-.24.58,1,1,0,0,1-1.26,0Zm-.07.9h1.4V172H63.9Z"/><path class="cls-2" d="M67.53,171.77a2.35,2.35,0,0,1-.94-.88,2.55,2.55,0,0,1,0-2.58,2.37,2.37,0,0,1,.94-.89,3,3,0,0,1,1.38-.31,2.94,2.94,0,0,1,1.37.31,2.53,2.53,0,0,1,.94,3.47,2.42,2.42,0,0,1-.94.88,2.94,2.94,0,0,1-1.37.32A3,3,0,0,1,67.53,171.77Zm2.26-1.2a1.34,1.34,0,0,0,.35-1,1.37,1.37,0,0,0-.35-1,1.16,1.16,0,0,0-.88-.36,1.18,1.18,0,0,0-.89.36,1.32,1.32,0,0,0-.35,1,1.3,1.3,0,0,0,.35,1,1.16,1.16,0,0,0,.89.37A1.13,1.13,0,0,0,69.79,170.57Z"/><path class="cls-2" d="M76.9,167.65a2.17,2.17,0,0,1,.55,1.6V172H76v-2.56a1.26,1.26,0,0,0-.25-.86.92.92,0,0,0-.73-.28,1.11,1.11,0,0,0-.84.33,1.36,1.36,0,0,0-.32,1V172H72.5v-4.84h1.34v.56a1.88,1.88,0,0,1,.69-.47,2.45,2.45,0,0,1,.91-.16A2,2,0,0,1,76.9,167.65Z"/><circle class="cls-1" cx="207.2" cy="192.44" r="32.94"/><path class="cls-2" d="M190.79,188.77l-2.06,6.3h-1.57l-1.38-4.27-1.43,4.27h-1.56l-2.07-6.3h1.51l1.42,4.43,1.49-4.43h1.35l1.44,4.46,1.46-4.46Z"/><path class="cls-2" d="M195.86,193h-3.67a1.22,1.22,0,0,0,.47.72,1.59,1.59,0,0,0,.92.26,1.78,1.78,0,0,0,.67-.12,1.52,1.52,0,0,0,.54-.35l.75.81a2.51,2.51,0,0,1-2,.78,3.1,3.1,0,0,1-1.45-.32,2.37,2.37,0,0,1-1-.88,2.44,2.44,0,0,1-.34-1.29,2.46,2.46,0,0,1,1.26-2.18,2.79,2.79,0,0,1,1.32-.31,2.73,2.73,0,0,1,1.29.3,2.24,2.24,0,0,1,.9.88,2.6,2.6,0,0,1,.33,1.33S195.87,192.81,195.86,193Zm-3.29-1.55a1.17,1.17,0,0,0-.4.74h2.39a1.15,1.15,0,0,0-.4-.74,1.18,1.18,0,0,0-.79-.27A1.21,1.21,0,0,0,192.57,191.49Z"/><path class="cls-2" d="M200.91,190.47a2.14,2.14,0,0,1,.87.87,2.92,2.92,0,0,1,0,2.62,2.27,2.27,0,0,1-.87.87,2.44,2.44,0,0,1-1.23.31,1.86,1.86,0,0,1-1.52-.63v.56h-1.34v-6.68h1.4v2.35a1.88,1.88,0,0,1,1.46-.58A2.44,2.44,0,0,1,200.91,190.47Zm-.59,3.16a1.55,1.55,0,0,0,0-2,1.16,1.16,0,0,0-.88-.36,1.18,1.18,0,0,0-.89.36,1.58,1.58,0,0,0,0,2,1.18,1.18,0,0,0,.89.36A1.16,1.16,0,0,0,200.32,193.63Z"/><path class="cls-2" d="M208,188.39v6.68h-1.34v-.56a1.85,1.85,0,0,1-1.51.63,2.56,2.56,0,0,1-1.24-.3A2.23,2.23,0,0,1,203,194a2.64,2.64,0,0,1-.31-1.31,2.68,2.68,0,0,1,.31-1.32,2.27,2.27,0,0,1,.87-.87,2.56,2.56,0,0,1,1.24-.3,1.84,1.84,0,0,1,1.45.58v-2.35Zm-1.73,5.24a1.55,1.55,0,0,0,0-2,1.16,1.16,0,0,0-.88-.36,1.18,1.18,0,0,0-.89.36,1.55,1.55,0,0,0,0,2,1.18,1.18,0,0,0,.89.36A1.16,1.16,0,0,0,206.23,193.63Z"/><path class="cls-2" d="M214,193h-3.66a1.18,1.18,0,0,0,.47.72,1.56,1.56,0,0,0,.92.26,1.78,1.78,0,0,0,.67-.12,1.61,1.61,0,0,0,.54-.35l.75.81a2.52,2.52,0,0,1-2,.78,3.07,3.07,0,0,1-1.45-.32,2.37,2.37,0,0,1-1-.88,2.44,2.44,0,0,1-.34-1.29,2.41,2.41,0,0,1,1.26-2.18,2.74,2.74,0,0,1,1.32-.31,2.79,2.79,0,0,1,1.29.3,2.31,2.31,0,0,1,.9.88,2.6,2.6,0,0,1,.33,1.33S214,192.81,214,193Zm-3.28-1.55a1.13,1.13,0,0,0-.4.74h2.39a1.15,1.15,0,0,0-.4-.74,1.31,1.31,0,0,0-1.59,0Z"/><path class="cls-2" d="M215.38,195a3.12,3.12,0,0,1-.91-.37l.47-1a2.82,2.82,0,0,0,.78.34,3.11,3.11,0,0,0,.9.13c.59,0,.89-.15.89-.44a.31.31,0,0,0-.24-.3,3.6,3.6,0,0,0-.75-.15,6.79,6.79,0,0,1-1-.21,1.51,1.51,0,0,1-.67-.41,1.18,1.18,0,0,1-.29-.85,1.3,1.3,0,0,1,.27-.81,1.75,1.75,0,0,1,.77-.56,3.38,3.38,0,0,1,1.21-.19,4.43,4.43,0,0,1,1,.11,2.73,2.73,0,0,1,.84.31l-.47,1a2.8,2.8,0,0,0-1.39-.36,1.5,1.5,0,0,0-.68.12.39.39,0,0,0-.23.33.33.33,0,0,0,.25.31,4,4,0,0,0,.77.17,7.6,7.6,0,0,1,1,.22,1.46,1.46,0,0,1,.66.4,1.16,1.16,0,0,1,.28.83,1.27,1.27,0,0,1-.27.8,1.68,1.68,0,0,1-.79.55,3.46,3.46,0,0,1-1.23.19A4.71,4.71,0,0,1,215.38,195Z"/><path class="cls-2" d="M219.79,189.33a.75.75,0,0,1,0-1.12.88.88,0,0,1,.63-.22,1,1,0,0,1,.63.21.71.71,0,0,1,.24.54.75.75,0,0,1-.24.58,1,1,0,0,1-1.26,0Zm-.08.9h1.41v4.84h-1.41Z"/><path class="cls-2" d="M227.42,190.23v4a2.59,2.59,0,0,1-.69,2,2.89,2.89,0,0,1-2,.65,5.21,5.21,0,0,1-1.33-.17,3,3,0,0,1-1.05-.5l.56-1a2.29,2.29,0,0,0,.78.4,3,3,0,0,0,.93.15,1.52,1.52,0,0,0,1.08-.33,1.29,1.29,0,0,0,.34-1v-.21a2,2,0,0,1-1.53.61,2.53,2.53,0,0,1-1.22-.3,2.21,2.21,0,0,1-.87-.82,2.25,2.25,0,0,1-.33-1.22,2.29,2.29,0,0,1,.33-1.23,2.21,2.21,0,0,1,.87-.82,2.53,2.53,0,0,1,1.22-.29,1.94,1.94,0,0,1,1.61.69v-.62Zm-1.74,3.12a1.22,1.22,0,0,0,0-1.71,1.43,1.43,0,0,0-1.83,0,1.2,1.2,0,0,0,0,1.71,1.43,1.43,0,0,0,1.83,0Z"/><path class="cls-2" d="M233.12,190.7a2.13,2.13,0,0,1,.55,1.6v2.77h-1.4v-2.56a1.26,1.26,0,0,0-.25-.86,1,1,0,0,0-.73-.28,1.11,1.11,0,0,0-.85.33,1.36,1.36,0,0,0-.31,1v2.39h-1.41v-4.84h1.34v.56a1.92,1.92,0,0,1,.7-.47,2.42,2.42,0,0,1,.91-.16A2,2,0,0,1,233.12,190.7Z"/><circle class="cls-4" cx="75.31" cy="39.79" r="32.94"/><path class="cls-5" d="M50.32,37h1.46v6.3H50.32Z"/><path class="cls-5" d="M53.17,36.61h1.4v6.68h-1.4Z"/><path class="cls-5" d="M55.88,36.61h1.4v6.68h-1.4Z"/><path class="cls-5" d="M63.47,38.45v4.84H62.13v-.58a1.78,1.78,0,0,1-.66.49,2.13,2.13,0,0,1-.84.16,2,2,0,0,1-1.51-.55,2.17,2.17,0,0,1-.56-1.63V38.45H60V41c0,.78.32,1.17,1,1.17a1.07,1.07,0,0,0,.81-.33,1.4,1.4,0,0,0,.3-1V38.45Z"/><path class="cls-5" d="M65.22,43.21a2.93,2.93,0,0,1-.92-.37l.47-1a3.11,3.11,0,0,0,.78.34,3.21,3.21,0,0,0,.9.13c.6,0,.89-.15.89-.44a.31.31,0,0,0-.24-.3,3.48,3.48,0,0,0-.74-.15,7,7,0,0,1-1-.21,1.56,1.56,0,0,1-.67-.41,1.18,1.18,0,0,1-.28-.85,1.32,1.32,0,0,1,.27-.81,1.7,1.7,0,0,1,.77-.56,3.36,3.36,0,0,1,1.2-.19,4.43,4.43,0,0,1,1,.11,2.73,2.73,0,0,1,.84.31l-.46,1a2.81,2.81,0,0,0-1.4-.36,1.32,1.32,0,0,0-.67.13.37.37,0,0,0-.23.32.32.32,0,0,0,.24.31,4.11,4.11,0,0,0,.78.17,8,8,0,0,1,1,.22,1.44,1.44,0,0,1,.66.41,1.16,1.16,0,0,1,.28.82,1.27,1.27,0,0,1-.27.8,1.73,1.73,0,0,1-.79.55,3.53,3.53,0,0,1-1.23.19A4.66,4.66,0,0,1,65.22,43.21Z"/><path class="cls-5" d="M72.67,43.06a1.36,1.36,0,0,1-.5.23,2.73,2.73,0,0,1-.64.07,1.87,1.87,0,0,1-1.34-.44,1.68,1.68,0,0,1-.47-1.29v-2H69V38.56h.75V37.38h1.41v1.18h1.2v1.08h-1.2v2a.68.68,0,0,0,.15.47.61.61,0,0,0,.45.17.87.87,0,0,0,.56-.18Z"/><path class="cls-5" d="M75.49,38.56a2.48,2.48,0,0,1,1-.18v1.29h-.31a1.31,1.31,0,0,0-1,.33,1.36,1.36,0,0,0-.34,1v2.29h-1.4V38.45h1.34v.64A1.45,1.45,0,0,1,75.49,38.56Z"/><path class="cls-5" d="M81,38.91a2.07,2.07,0,0,1,.61,1.62v2.76H80.25v-.6a1.55,1.55,0,0,1-1.47.67,2.21,2.21,0,0,1-1-.19,1.48,1.48,0,0,1-.63-.52A1.37,1.37,0,0,1,77,41.9a1.28,1.28,0,0,1,.51-1.07,2.63,2.63,0,0,1,1.57-.38h1.11a.89.89,0,0,0-.28-.71,1.18,1.18,0,0,0-.83-.25,2.42,2.42,0,0,0-.76.12,2.27,2.27,0,0,0-.64.33l-.5-1a3.08,3.08,0,0,1,.95-.43,4.22,4.22,0,0,1,1.13-.15A2.56,2.56,0,0,1,81,38.91Zm-1.19,3.34a.92.92,0,0,0,.39-.49v-.49h-1c-.58,0-.87.18-.87.56a.51.51,0,0,0,.22.43.91.91,0,0,0,.58.16A1.25,1.25,0,0,0,79.77,42.25Z"/><path class="cls-5" d="M86,43.06a1.5,1.5,0,0,1-.51.23,2.62,2.62,0,0,1-.64.07,1.84,1.84,0,0,1-1.33-.44A1.65,1.65,0,0,1,83,41.63v-2h-.75V38.56H83V37.38h1.4v1.18h1.21v1.08H84.41v2a.64.64,0,0,0,.16.47.57.57,0,0,0,.44.17.92.92,0,0,0,.57-.18Z"/><path class="cls-5" d="M86.82,37.55a.77.77,0,0,1,0-1.12.88.88,0,0,1,.63-.22.92.92,0,0,1,.63.21.71.71,0,0,1,.24.54.75.75,0,0,1-.24.58.85.85,0,0,1-.63.23A.88.88,0,0,1,86.82,37.55Zm-.07.9h1.4v4.84h-1.4Z"/><path class="cls-5" d="M90.39,43a2.52,2.52,0,0,1-1-3.46,2.37,2.37,0,0,1,1-.88,3.09,3.09,0,0,1,2.74,0,2.37,2.37,0,0,1,1,.88,2.62,2.62,0,0,1,0,2.58,2.44,2.44,0,0,1-1,.88,3.09,3.09,0,0,1-2.74,0Zm2.26-1.19a1.55,1.55,0,0,0,0-2,1.18,1.18,0,0,0-.89-.36,1.2,1.2,0,0,0-.89.36,1.55,1.55,0,0,0,0,2,1.2,1.2,0,0,0,.89.36A1.18,1.18,0,0,0,92.65,41.85Z"/><path class="cls-5" d="M99.75,38.92a2.13,2.13,0,0,1,.55,1.6v2.77H98.9V40.74a1.23,1.23,0,0,0-.25-.86.93.93,0,0,0-.73-.29,1.11,1.11,0,0,0-.85.33,1.36,1.36,0,0,0-.31,1v2.39H95.35V38.45h1.34V39a1.83,1.83,0,0,1,.7-.48,2.42,2.42,0,0,1,.91-.16A2,2,0,0,1,99.75,38.92Z"/><circle class="cls-3" cx="208.79" cy="132.03" r="38.32"/><path class="cls-2" d="M196.69,134.73a2.85,2.85,0,0,1-.75-2.13v-3.53h1.46v3.48c0,1.12.47,1.69,1.4,1.69a1.33,1.33,0,0,0,1-.41,1.9,1.9,0,0,0,.36-1.28v-3.48h1.44v3.53a3,3,0,0,1-5,2.13Z"/><path class="cls-2" d="M207,135.37l-1.52-2.18-1.5,2.18h-1.67l2.33-3.2-2.22-3.1h1.66l1.45,2.05,1.42-2.05h1.58l-2.2,3.05,2.35,3.25Z"/><path class="cls-2" d="M211.48,127.79h1.25l-3,8.48h-1.25Z"/><path class="cls-2" d="M213.78,134.73a2.82,2.82,0,0,1-.76-2.13v-3.53h1.46v3.48c0,1.12.47,1.69,1.41,1.69a1.33,1.33,0,0,0,1-.41,1.9,1.9,0,0,0,.36-1.28v-3.48h1.44v3.53a3,3,0,0,1-4.95,2.13Z"/><path class="cls-2" d="M220.17,129.07h1.46v6.3h-1.46Z"/><circle class="cls-4" cx="36.06" cy="212.92" r="24.07"/><path class="cls-2" d="M20.71,213.56l-.84.88V216H18.42v-6.3h1.45v2.94l2.79-2.94h1.62l-2.61,2.8,2.76,3.5h-1.7Z"/><path class="cls-2" d="M28.55,211.66a2,2,0,0,1,.6,1.61V216H27.84v-.61a1.56,1.56,0,0,1-1.48.68,2.35,2.35,0,0,1-1-.19,1.49,1.49,0,0,1-.63-.52,1.43,1.43,0,0,1-.21-.76,1.28,1.28,0,0,1,.5-1.06,2.61,2.61,0,0,1,1.58-.39h1.11a.87.87,0,0,0-.28-.7,1.18,1.18,0,0,0-.83-.25,2.53,2.53,0,0,0-.77.12,2,2,0,0,0-.63.33l-.5-1a3.09,3.09,0,0,1,1-.44,4.22,4.22,0,0,1,1.13-.15A2.51,2.51,0,0,1,28.55,211.66ZM27.36,215a1,1,0,0,0,.39-.49V214h-1q-.87,0-.87.57a.5.5,0,0,0,.22.43,1,1,0,0,0,.58.15A1.24,1.24,0,0,0,27.36,215Z"/><path class="cls-2" d="M38.07,211.66a2.15,2.15,0,0,1,.54,1.6V216H37.2v-2.56a1.32,1.32,0,0,0-.24-.86.83.83,0,0,0-.68-.28,1,1,0,0,0-.78.32,1.38,1.38,0,0,0-.29,1V216h-1.4v-2.56c0-.76-.31-1.14-.92-1.14a1,1,0,0,0-.77.32,1.34,1.34,0,0,0-.29,1V216H30.42v-4.85h1.35v.56a1.77,1.77,0,0,1,.66-.47,2.35,2.35,0,0,1,.86-.16,2.11,2.11,0,0,1,.92.2,1.74,1.74,0,0,1,.67.59,2,2,0,0,1,.75-.58,2.34,2.34,0,0,1,1-.21A2,2,0,0,1,38.07,211.66Z"/><path class="cls-2" d="M44.64,214H41a1.13,1.13,0,0,0,.47.71,1.51,1.51,0,0,0,.92.26,1.78,1.78,0,0,0,.67-.11,1.42,1.42,0,0,0,.54-.36l.75.81a2.49,2.49,0,0,1-2,.79,3.22,3.22,0,0,1-1.45-.32,2.39,2.39,0,0,1-1-.89,2.6,2.6,0,0,1,0-2.57,2.32,2.32,0,0,1,.92-.89,2.8,2.8,0,0,1,1.32-.32,2.62,2.62,0,0,1,1.29.31,2.16,2.16,0,0,1,.9.87,2.65,2.65,0,0,1,.33,1.33S44.65,213.78,44.64,214Zm-3.29-1.56a1.2,1.2,0,0,0-.4.74h2.39a1.16,1.16,0,0,0-.4-.73,1.19,1.19,0,0,0-.79-.28A1.21,1.21,0,0,0,41.35,212.45Z"/><path class="cls-2" d="M47.62,211.3a2.5,2.5,0,0,1,1-.18v1.3l-.32,0a1.29,1.29,0,0,0-.95.34,1.38,1.38,0,0,0-.34,1V216H45.6v-4.85h1.34v.64A1.57,1.57,0,0,1,47.62,211.3Z"/><path class="cls-2" d="M53.1,211.66a2,2,0,0,1,.6,1.61V216H52.38v-.61a1.55,1.55,0,0,1-1.47.68,2.4,2.4,0,0,1-1-.19,1.55,1.55,0,0,1-.63-.52,1.43,1.43,0,0,1-.21-.76,1.26,1.26,0,0,1,.51-1.06,2.57,2.57,0,0,1,1.57-.39h1.11a.9.9,0,0,0-.27-.7,1.22,1.22,0,0,0-.84-.25,2.46,2.46,0,0,0-.76.12,2,2,0,0,0-.64.33l-.5-1a3.09,3.09,0,0,1,.95-.44,4.35,4.35,0,0,1,1.14-.15A2.53,2.53,0,0,1,53.1,211.66ZM51.9,215a1,1,0,0,0,.39-.49V214h-1c-.57,0-.86.19-.86.57a.52.52,0,0,0,.21.43,1,1,0,0,0,.58.15A1.24,1.24,0,0,0,51.9,215Z"/><circle class="cls-6" cx="134.33" cy="149.04" r="56.9"/><path class="cls-2" d="M110.3,149.24l-.85.88v1.59H108v-6.3h1.45v2.94l2.79-2.94h1.62l-2.61,2.81,2.76,3.49h-1.7Z"/><path class="cls-2" d="M115.29,151.46a2.28,2.28,0,0,1-.94-.88,2.55,2.55,0,0,1,0-2.58,2.35,2.35,0,0,1,.94-.88,2.87,2.87,0,0,1,1.38-.32,2.83,2.83,0,0,1,1.37.32,2.52,2.52,0,0,1,.94,3.46,2.35,2.35,0,0,1-.94.88,2.83,2.83,0,0,1-1.37.32A2.87,2.87,0,0,1,115.29,151.46Zm2.26-1.19a1.55,1.55,0,0,0,0-2,1.16,1.16,0,0,0-.88-.36,1.18,1.18,0,0,0-.89.36,1.55,1.55,0,0,0,0,2,1.18,1.18,0,0,0,.89.36A1.16,1.16,0,0,0,117.55,150.27Z"/><path class="cls-2" d="M124.65,147.34a2.13,2.13,0,0,1,.56,1.6v2.77H123.8v-2.55a1.24,1.24,0,0,0-.25-.86.93.93,0,0,0-.73-.29,1.11,1.11,0,0,0-.84.33,1.38,1.38,0,0,0-.32,1v2.39h-1.4v-4.84h1.34v.57a1.79,1.79,0,0,1,.69-.48,2.45,2.45,0,0,1,.91-.16A2,2,0,0,1,124.65,147.34Z"/><path class="cls-2" d="M130.46,150.63v1.08h-4.32v-.84l2.47-2.92h-2.4v-1.08h4.17v.85l-2.46,2.91Z"/><path class="cls-2" d="M136,149.69h-3.67a1.2,1.2,0,0,0,.47.71,1.59,1.59,0,0,0,.92.26,2,2,0,0,0,.67-.11,1.6,1.6,0,0,0,.54-.36l.75.81a2.51,2.51,0,0,1-2,.78,3.1,3.1,0,0,1-1.45-.32,2.3,2.3,0,0,1-1-.88,2.53,2.53,0,0,1-.34-1.29,2.43,2.43,0,0,1,.34-1.28,2.28,2.28,0,0,1,.93-.89,2.62,2.62,0,0,1,1.31-.32,2.73,2.73,0,0,1,1.29.3,2.33,2.33,0,0,1,.91.88,2.7,2.7,0,0,1,.32,1.33S136,149.45,136,149.69Zm-3.29-1.56a1.14,1.14,0,0,0-.39.74h2.38a1.18,1.18,0,0,0-.4-.74,1.17,1.17,0,0,0-.79-.27A1.21,1.21,0,0,0,132.73,148.13Z"/><path class="cls-2" d="M141.07,147.11a2.27,2.27,0,0,1,.87.87,2.92,2.92,0,0,1,0,2.62,2.14,2.14,0,0,1-.87.87,2.44,2.44,0,0,1-1.23.31,1.88,1.88,0,0,1-1.46-.58v2.26H137v-6.59h1.34v.56a1.87,1.87,0,0,1,1.52-.63A2.44,2.44,0,0,1,141.07,147.11Zm-.59,3.16a1.55,1.55,0,0,0,0-2,1.16,1.16,0,0,0-.88-.36,1.18,1.18,0,0,0-.89.36,1.58,1.58,0,0,0,0,2,1.18,1.18,0,0,0,.89.36A1.16,1.16,0,0,0,140.48,150.27Z"/><path class="cls-2" d="M146.31,151.48a1.41,1.41,0,0,1-.51.23,2.59,2.59,0,0,1-.63.07,1.87,1.87,0,0,1-1.34-.44,1.68,1.68,0,0,1-.47-1.29v-2h-.75V147h.75V145.8h1.4V147H146v1.08h-1.21v2a.68.68,0,0,0,.16.47.61.61,0,0,0,.45.17.87.87,0,0,0,.56-.18Z"/><path class="cls-2" d="M147.18,146a.75.75,0,0,1,0-1.12.88.88,0,0,1,.63-.22,1,1,0,0,1,.63.21.71.71,0,0,1,.24.54.79.79,0,0,1-.24.59.92.92,0,0,1-.63.23A.89.89,0,0,1,147.18,146Zm-.07.9h1.4v4.84h-1.4Z"/><path class="cls-2" d="M150.74,151.46a2.28,2.28,0,0,1-.94-.88,2.55,2.55,0,0,1,0-2.58,2.35,2.35,0,0,1,.94-.88,2.87,2.87,0,0,1,1.38-.32,2.83,2.83,0,0,1,1.37.32,2.52,2.52,0,0,1,.94,3.46,2.35,2.35,0,0,1-.94.88,2.83,2.83,0,0,1-1.37.32A2.87,2.87,0,0,1,150.74,151.46Zm2.26-1.19a1.55,1.55,0,0,0,0-2,1.16,1.16,0,0,0-.88-.36,1.18,1.18,0,0,0-.89.36,1.55,1.55,0,0,0,0,2,1.18,1.18,0,0,0,.89.36A1.16,1.16,0,0,0,153,150.27Z"/><path class="cls-2" d="M160.11,147.34a2.17,2.17,0,0,1,.55,1.6v2.77h-1.41v-2.55a1.24,1.24,0,0,0-.25-.86.93.93,0,0,0-.73-.29,1.11,1.11,0,0,0-.84.33,1.38,1.38,0,0,0-.32,1v2.39h-1.4v-4.84h1.34v.57a1.79,1.79,0,0,1,.69-.48,2.45,2.45,0,0,1,.91-.16A2,2,0,0,1,160.11,147.34Z"/></g></svg>