<svg xmlns="http://www.w3.org/2000/svg" viewBox="0 0 77.43 65.6"><defs><style>.cls-1{fill:#7cc086;}.cls-2{fill:none;stroke:#fff;stroke-linejoin:round;stroke-width:2px;}.cls-3{fill:#fff;}</style></defs><g id="Ebene_2" data-name="Ebene 2"><circle class="cls-1" cx="38.71" cy="32.8" r="31.74"/><rect class="cls-2" x="33.15" y="16.51" width="11.13" height="3.9"/><path class="cls-3" d="M55,20.41H53V45.09h2a1.48,1.48,0,0,0,1.49-1.48V21.9A1.49,1.49,0,0,0,55,20.41Z"/><path class="cls-3" d="M26.49,45.09H50.87V20.41H26.49ZM45,29.92c2.57,0,4.66,1.27,4.66,2.83S47.58,35.59,45,35.59s-4.67-1.27-4.67-2.84S42.43,29.92,45,29.92ZM37.52,41.25,30,40.39l.54-4.72,7.5.85ZM37,27.12l-6.31,2.19-1.38-4,6.32-2.19Z"/><path class="cls-3" d="M24.36,20.41H22.44A1.49,1.49,0,0,0,21,21.9V43.61a1.48,1.48,0,0,0,1.48,1.48h1.92Z"/></g></svg>