<svg xmlns="http://www.w3.org/2000/svg" viewBox="0 0 77.43 65.6"><defs><style>.cls-1{fill:#7cc086;}.cls-2{fill:#fff;}</style></defs><g id="Ebene_2" data-name="Ebene 2"><circle class="cls-1" cx="38.71" cy="32.8" r="31.74"/><path class="cls-2" d="M53,21.77h-7.4v-3a1.36,1.36,0,0,0-1.36-1.35H33.16a1.36,1.36,0,0,0-1.35,1.35v3h-7.4a2.63,2.63,0,0,0-2.63,2.63V41.55a2.63,2.63,0,0,0,2.63,2.63H53a2.63,2.63,0,0,0,2.63-2.63V24.4A2.63,2.63,0,0,0,53,21.77ZM38.71,42.53a8.42,8.42,0,1,1,8.42-8.42A8.42,8.42,0,0,1,38.71,42.53Z"/></g></svg>