<svg xmlns="http://www.w3.org/2000/svg" viewBox="0 0 40.8 37.54"><defs><style>.cls-1{fill:none;stroke:#7cc086;stroke-miterlimit:10;stroke-width:3px;}.cls-2{fill:#7cc086;}</style></defs><g id="Ebene_2" data-name="Ebene 2"><circle class="cls-1" cx="20.59" cy="18.66" r="15.21"/><path class="cls-1" d="M20.5,3.49A15.19,15.19,0,0,0,6.71,12.32"/><path class="cls-2" d="M15.31,15.7V22H13.86V19.42H11V22H9.54V15.7H11v2.48h2.87V15.7Z"/><path class="cls-2" d="M19.83,21.77a1.41,1.41,0,0,1-.51.23,2.59,2.59,0,0,1-.63.07,1.87,1.87,0,0,1-1.34-.44,1.68,1.68,0,0,1-.47-1.29v-2h-.75V17.27h.75V16.09h1.4v1.18h1.21v1.08H18.28v2a.68.68,0,0,0,.16.47.61.61,0,0,0,.45.17.87.87,0,0,0,.56-.18Z"/><path class="cls-2" d="M28.27,17.62a2.17,2.17,0,0,1,.54,1.61V22H27.4V19.44a1.27,1.27,0,0,0-.24-.85.83.83,0,0,0-.68-.29,1,1,0,0,0-.78.32,1.38,1.38,0,0,0-.29.95V22H24V19.44c0-.76-.31-1.14-.92-1.14a1,1,0,0,0-.77.32,1.34,1.34,0,0,0-.29.95V22H20.62V17.16H22v.56a1.74,1.74,0,0,1,.66-.47,2.16,2.16,0,0,1,.86-.16,2,2,0,0,1,.92.2,1.59,1.59,0,0,1,.67.59,2.07,2.07,0,0,1,.75-.59,2.5,2.5,0,0,1,1-.2A2,2,0,0,1,28.27,17.62Z"/><path class="cls-2" d="M30.07,15.32h1.4V22h-1.4Z"/></g></svg>