<svg xmlns="http://www.w3.org/2000/svg" viewBox="0 0 40.8 37.54"><defs><style>.cls-1{fill:none;stroke:#7cc086;stroke-miterlimit:10;stroke-width:3px;}.cls-2{fill:#7cc086;}</style></defs><g id="Ebene_2" data-name="Ebene 2"><circle class="cls-1" cx="19.52" cy="18.5" r="15.21"/><path class="cls-1" d="M19.48,3.3A15.21,15.21,0,1,0,33.84,23.48"/><path class="cls-2" d="M7.87,21.68a2.93,2.93,0,0,1-1.12-1.17,3.61,3.61,0,0,1,0-3.34A3,3,0,0,1,7.87,16a3.23,3.23,0,0,1,3.22,0,3,3,0,0,1,1.12,1.16,3.61,3.61,0,0,1,0,3.34,3,3,0,0,1-1.12,1.17,3.3,3.3,0,0,1-3.22,0ZM10.4,20.6a1.76,1.76,0,0,0,.64-.71,2.26,2.26,0,0,0,.24-1.05,2.19,2.19,0,0,0-.24-1,1.73,1.73,0,0,0-.64-.72,1.69,1.69,0,0,0-.92-.25,1.72,1.72,0,0,0-.92.25,1.8,1.8,0,0,0-.64.72,2.18,2.18,0,0,0-.23,1,2.25,2.25,0,0,0,.23,1.05,1.84,1.84,0,0,0,.64.71,1.73,1.73,0,0,0,.92.26A1.7,1.7,0,0,0,10.4,20.6Z"/><path class="cls-2" d="M14.93,17.26h1.14v1.08H15V22H13.69V18.34H13V17.26h.68V17a1.84,1.84,0,0,1,.45-1.31,1.59,1.59,0,0,1,1.26-.49,1.9,1.9,0,0,1,.54.07,1.22,1.22,0,0,1,.43.19l-.34,1a.82.82,0,0,0-.51-.17c-.39,0-.59.23-.59.7Z"/><path class="cls-2" d="M18.11,17.26h1.13v1.08h-1.1V22H16.86V18.34h-.68V17.26h.68V17a1.84,1.84,0,0,1,.45-1.31,1.61,1.61,0,0,1,1.26-.49,1.9,1.9,0,0,1,.54.07,1.14,1.14,0,0,1,.43.19l-.33,1a.85.85,0,0,0-.52-.17c-.39,0-.58.23-.58.7Zm2.49-1a.82.82,0,0,1,0-1.12.86.86,0,0,1,1.15,0,.7.7,0,0,1,.22.54.81.81,0,0,1-.22.58.83.83,0,0,1-1.15,0Zm-.06.9h1.28V22H20.54Z"/><path class="cls-2" d="M23.87,21.74a2.26,2.26,0,0,1-.88-.88,2.84,2.84,0,0,1,0-2.58,2.32,2.32,0,0,1,.88-.88,2.47,2.47,0,0,1,1.27-.32,2.25,2.25,0,0,1,1.22.32,1.82,1.82,0,0,1,.75.91l-1,.59a1.07,1.07,0,0,0-1-.67,1.08,1.08,0,0,0-.83.36,1.4,1.4,0,0,0-.33,1,1.38,1.38,0,0,0,.33,1,1.08,1.08,0,0,0,.83.36,1.06,1.06,0,0,0,1-.66l1,.59a1.89,1.89,0,0,1-.75.9,2.25,2.25,0,0,1-1.22.32A2.47,2.47,0,0,1,23.87,21.74Z"/><path class="cls-2" d="M32.09,20H28.76a1.18,1.18,0,0,0,.42.71,1.36,1.36,0,0,0,.84.26,1.4,1.4,0,0,0,1.11-.47l.68.81a2.21,2.21,0,0,1-1.82.78,2.58,2.58,0,0,1-1.32-.32,2.16,2.16,0,0,1-.89-.88,2.82,2.82,0,0,1,0-2.57,2.19,2.19,0,0,1,.84-.89,2.25,2.25,0,0,1,1.2-.32,2.29,2.29,0,0,1,1.17.3,2.2,2.2,0,0,1,.83.88,2.83,2.83,0,0,1,.3,1.33S32.11,19.73,32.09,20Zm-3-1.56a1.16,1.16,0,0,0-.36.74h2.17a1.19,1.19,0,0,0-.36-.74,1.11,1.11,0,0,0-1.45,0Z"/></g></svg>