<svg xmlns="http://www.w3.org/2000/svg" viewBox="0 0 40.8 37.54"><defs><style>.cls-1{fill:none;stroke:#7cc086;stroke-miterlimit:10;stroke-width:3px;}.cls-2{fill:#7cc086;}</style></defs><g id="Ebene_2" data-name="Ebene 2"><circle class="cls-1" cx="19.18" cy="18.7" r="15.21"/><path class="cls-1" d="M19.28,3.39A15.21,15.21,0,1,0,30.44,28.9"/><path class="cls-2" d="M18.58,14.77a2.94,2.94,0,0,1,1.27,1.05,3.2,3.2,0,0,1,0,3.24,2.81,2.81,0,0,1-1.27,1.05,4.63,4.63,0,0,1-1.94.37H15V22.8H13V14.4h3.63A4.63,4.63,0,0,1,18.58,14.77Zm-.71,3.75a1.52,1.52,0,0,0,0-2.16A2.07,2.07,0,0,0,16.54,16H15V18.9h1.59A2.07,2.07,0,0,0,17.87,18.52Z"/><path class="cls-2" d="M24.23,16.48a3.38,3.38,0,0,1,1.32-.24V18l-.42,0a1.7,1.7,0,0,0-1.26.45,1.8,1.8,0,0,0-.46,1.35V22.8H21.54V16.34h1.79v.85A2.06,2.06,0,0,1,24.23,16.48Z"/></g></svg>