<svg xmlns="http://www.w3.org/2000/svg" viewBox="0 0 40.8 37.54"><defs><style>.cls-1{fill:none;stroke:#7cc086;stroke-miterlimit:10;stroke-width:3px;}.cls-2{fill:#7cc086;}</style></defs><g id="Ebene_2" data-name="Ebene 2"><circle class="cls-1" cx="19.89" cy="18.84" r="15.21"/><path class="cls-1" d="M19.29,3.64A15.2,15.2,0,0,0,19.76,34a14.49,14.49,0,0,0,2.09-.16"/><path class="cls-2" d="M7.9,22A2.56,2.56,0,0,1,7,21.49l.4-1.1a2.49,2.49,0,0,0,.79.48,2.46,2.46,0,0,0,.91.18,1.25,1.25,0,0,0,.75-.19.57.57,0,0,0,.25-.49A.5.5,0,0,0,9.94,20a1,1,0,0,0-.36-.24,6.26,6.26,0,0,0-.61-.2,7.54,7.54,0,0,1-1-.34,1.67,1.67,0,0,1-.64-.55,1.7,1.7,0,0,1-.27-1,2,2,0,0,1,.24-1A1.7,1.7,0,0,1,8.07,16a2.52,2.52,0,0,1,1.19-.26,3.55,3.55,0,0,1,1,.14,2.65,2.65,0,0,1,.82.42l-.37,1.1a2.46,2.46,0,0,0-1.42-.49,1.18,1.18,0,0,0-.75.2.65.65,0,0,0-.23.52.51.51,0,0,0,.27.48,3.6,3.6,0,0,0,.85.31,9.18,9.18,0,0,1,1,.34,1.57,1.57,0,0,1,.91,1.54,2.07,2.07,0,0,1-.24,1,1.73,1.73,0,0,1-.74.7,2.47,2.47,0,0,1-1.2.27A3.43,3.43,0,0,1,7.9,22Z"/><path class="cls-2" d="M13.71,20.21l-.55.66v1.24H12V15.43h1.15v3.78l1.68-1.94h1.37l-1.65,2.05,1.8,2.79H15Z"/><path class="cls-2" d="M20.56,20.08h-3a1.21,1.21,0,0,0,.39.71,1.07,1.07,0,0,0,.75.26,1.19,1.19,0,0,0,1-.46l.61.81a1.87,1.87,0,0,1-1.63.78,2.25,2.25,0,0,1-1.19-.32,2.07,2.07,0,0,1-.79-.89,2.77,2.77,0,0,1-.28-1.28,3,3,0,0,1,.27-1.29,2.29,2.29,0,0,1,.76-.89,1.93,1.93,0,0,1,1.08-.32,2,2,0,0,1,1.06.31,2.08,2.08,0,0,1,.74.88,3.2,3.2,0,0,1,.26,1.32S20.58,19.85,20.56,20.08Zm-2.69-1.55a1.26,1.26,0,0,0-.32.73H19.5a1.29,1.29,0,0,0-.32-.73.88.88,0,0,0-.65-.27A.9.9,0,0,0,17.87,18.53Z"/><path class="cls-2" d="M23.91,21.87a1,1,0,0,1-.42.23,1.77,1.77,0,0,1-.52.08,1.39,1.39,0,0,1-1.09-.44,1.92,1.92,0,0,1-.39-1.3v-2h-.61V17.37h.61V16.19h1.15v1.18h1v1.08h-1v2a.74.74,0,0,0,.13.48.42.42,0,0,0,.36.16.66.66,0,0,0,.47-.18Z"/><path class="cls-2" d="M25.21,21.86a2.14,2.14,0,0,1-.79-.89,2.77,2.77,0,0,1-.28-1.28,2.84,2.84,0,0,1,.28-1.29,2.2,2.2,0,0,1,.79-.89,2.08,2.08,0,0,1,1.14-.32,1.92,1.92,0,0,1,1.09.32,1.83,1.83,0,0,1,.68.92l-.89.58a1,1,0,0,0-.89-.66.94.94,0,0,0-.75.36,1.53,1.53,0,0,0-.29,1,1.55,1.55,0,0,0,.29,1,.94.94,0,0,0,.75.36,1,1,0,0,0,.89-.67l.89.6a1.87,1.87,0,0,1-.68.9,1.92,1.92,0,0,1-1.09.32A2.08,2.08,0,0,1,25.21,21.86Z"/><path class="cls-2" d="M32.35,17.73a2.42,2.42,0,0,1,.46,1.61v2.77H31.66V19.55a1.45,1.45,0,0,0-.21-.86.7.7,0,0,0-.6-.28.84.84,0,0,0-.69.33,1.56,1.56,0,0,0-.26,1v2.4H28.76V15.43H29.9v2.34a1.56,1.56,0,0,1,.56-.43,1.63,1.63,0,0,1,.7-.15A1.48,1.48,0,0,1,32.35,17.73Z"/></g></svg>