<svg xmlns="http://www.w3.org/2000/svg" viewBox="0 0 40.8 37.54"><defs><style>.cls-1{fill:none;stroke:#7cc086;stroke-miterlimit:10;stroke-width:3px;}.cls-2{fill:#7cc086;}</style></defs><g id="Ebene_2" data-name="Ebene 2"><circle class="cls-1" cx="19.47" cy="18.55" r="15.21"/><path class="cls-1" d="M19.47,3.34A15.23,15.23,0,1,0,33.16,12"/><path class="cls-2" d="M14.28,14.55h1.94V23H14.28Z"/><path class="cls-2" d="M24.66,14.05V23H22.87v-.74a2.48,2.48,0,0,1-2,.84,3.36,3.36,0,0,1-1.65-.41A2.94,2.94,0,0,1,18,21.48,3.88,3.88,0,0,1,18,18a2.94,2.94,0,0,1,1.16-1.16,3.36,3.36,0,0,1,1.65-.41,2.44,2.44,0,0,1,1.93.78V14.05Zm-2.31,7a2,2,0,0,0,0-2.61,1.56,1.56,0,0,0-1.17-.48,1.59,1.59,0,0,0-1.19.48A2,2,0,0,0,20,21a1.59,1.59,0,0,0,1.19.48A1.56,1.56,0,0,0,22.35,21Z"/></g></svg>