<svg xmlns="http://www.w3.org/2000/svg" viewBox="0 0 40.8 37.54"><defs><style>.cls-1{fill:none;stroke:#7cc086;stroke-miterlimit:10;stroke-width:3px;}.cls-2{fill:#7cc086;}</style></defs><g id="Ebene_2" data-name="Ebene 2"><circle class="cls-1" cx="20.25" cy="18.82" r="15.21"/><path class="cls-1" d="M20.24,3.57A15.2,15.2,0,1,0,32,9.15"/><path class="cls-2" d="M18.88,14.9A2.9,2.9,0,0,1,20.15,16a2.93,2.93,0,0,1,.44,1.62,3,3,0,0,1-.44,1.61,2.9,2.9,0,0,1-1.27,1.06,4.8,4.8,0,0,1-1.94.36H15.25v2.32H13.31v-8.4h3.63A4.63,4.63,0,0,1,18.88,14.9Zm-.71,3.75a1.32,1.32,0,0,0,.45-1.07,1.35,1.35,0,0,0-.45-1.09,2.07,2.07,0,0,0-1.33-.38H15.25V19h1.59A2.07,2.07,0,0,0,18.17,18.65Z"/><path class="cls-2" d="M22.56,22.83a4,4,0,0,1-1.22-.5L22,21a4,4,0,0,0,1,.44,4.26,4.26,0,0,0,1.2.18c.8,0,1.19-.2,1.19-.59a.43.43,0,0,0-.32-.4,6.15,6.15,0,0,0-1-.2,8.87,8.87,0,0,1-1.31-.28,1.94,1.94,0,0,1-.89-.55,1.57,1.57,0,0,1-.38-1.12,1.76,1.76,0,0,1,.36-1.09,2.25,2.25,0,0,1,1-.74,4.51,4.51,0,0,1,1.6-.26,6.23,6.23,0,0,1,1.36.15,3.65,3.65,0,0,1,1.12.41l-.62,1.33a3.74,3.74,0,0,0-1.86-.48,1.91,1.91,0,0,0-.9.17.5.5,0,0,0-.3.43.43.43,0,0,0,.32.42,5.57,5.57,0,0,0,1,.23,11.48,11.48,0,0,1,1.29.28,1.91,1.91,0,0,1,.88.55,1.53,1.53,0,0,1,.37,1.1A1.71,1.71,0,0,1,26.82,22a2.3,2.3,0,0,1-1.05.73,4.74,4.74,0,0,1-1.64.26A6.37,6.37,0,0,1,22.56,22.83Z"/></g></svg>