<svg xmlns="http://www.w3.org/2000/svg" viewBox="0 0 40.8 37.54"><defs><style>.cls-1{fill:none;stroke:#7cc086;stroke-miterlimit:10;stroke-width:3px;}.cls-2{fill:#7cc086;}</style></defs><g id="Ebene_2" data-name="Ebene 2"><circle class="cls-1" cx="21.66" cy="19.18" r="15.21"/><path class="cls-1" d="M21.84,4a15.21,15.21,0,1,0,4.67,29.69"/><path class="cls-2" d="M19.24,23.38l-2-2.91-2,2.91H13l3.11-4.27-3-4.13h2.2l1.93,2.73L19.18,15h2.1L18.35,19l3.13,4.34Z"/><path class="cls-2" d="M22.25,15h3.82a5.49,5.49,0,0,1,2.42.52A3.94,3.94,0,0,1,30.12,17a4.14,4.14,0,0,1,.58,2.21,4.12,4.12,0,0,1-.58,2.21,3.94,3.94,0,0,1-1.63,1.47,5.35,5.35,0,0,1-2.42.52H22.25ZM26,21.79a2.82,2.82,0,0,0,2-.71,2.46,2.46,0,0,0,.75-1.9,2.48,2.48,0,0,0-.75-1.9,2.81,2.81,0,0,0-2-.7H24.2v5.21Z"/></g></svg>